{
  "accessors": [
    {
      "bufferView": 2,
      "componentType": 5126,
      "count": 1469,
      "max": [
        63.371856689453125,
        27.694210052490234,
        44.823451995849609
      ],
      "min": [
        -63.371856689453125,
        -2.0771579742431641,
        -68.750953674316406
      ],
      "type": "VEC3"
    },
    {
      "bufferView": 2,
      "byteOffset": 17628,
      "componentType": 5126,
      "count": 1469,
      "max": [
        1,
        1,
        1
      ],
      "min": [
        -1,
        -1,
        -0.99993288516998291
      ],
      "type": "VEC3"
    },
    {
      "bufferView": 3,
      "componentType": 5126,
      "count": 1469,
      "max": [
        0.9999961256980896,
        0.99995732307434082,
        0.99999320507049561,
        1
      ],
      "min": [
        -0.9999997615814209,
        -0.99984276294708252,
        -0.99999320507049561,
        1
      ],
      "type": "VEC4"
    },
    {
      "bufferView": 1,
      "componentType": 5126,
      "count": 1469,
      "max": [
        0.42448171973228455,
        0.99111509323120117
      ],
      "min": [
        0.028628721833229065,
        0.0081743299961090088
      ],
      "type": "VEC2"
    },
    {
      "bufferView": 0,
      "componentType": 5125,
      "count": 7488,
      "max": [
        1468
      ],
      "min": [
        0
      ],
      "type": "SCALAR"
    },
    {
      "bufferView": 2,
      "byteOffset": 35256,
      "componentType": 5126,
      "count": 410,
      "max": [
        60.943000793457031,
        26.785396575927734,
        44.423614501953125
      ],
      "min": [
        6.5156760215759277,
        -27.641912460327148,
        43.596481323242188
      ],
      "type": "VEC3"
    },
    {
      "bufferView": 2,
      "byteOffset": 40176,
      "componentType": 5126,
      "count": 410,
      "max": [
        1,
        1,
        1
      ],
      "min": [
        -1,
        -1,
        -1
      ],
      "type": "VEC3"
    },
    {
      "bufferView": 3,
      "byteOffset": 23504,
      "componentType": 5126,
      "count": 410,
      "max": [
        0.99999910593032837,
        0.97596198320388794,
        0.86479097604751587,
        1
      ],
      "min": [
        -0.99999934434890747,
        -0.97178757190704346,
        -0.9533466100692749,
        1
      ],
      "type": "VEC4"
    },
    {
      "bufferView": 1,
      "byteOffset": 11752,
      "componentType": 5126,
      "count": 410,
      "max": [
        0.91582322120666504,
        0.93920999765396118
      ],
      "min": [
        0.69363361597061157,
        0.48334845900535583
      ],
      "type": "VEC2"
    },
    {
      "bufferView": 0,
      "byteOffset": 29952,
      "componentType": 5125,
      "count": 2256,
      "max": [
        409
      ],
      "min": [
        0
      ],
      "type": "SCALAR"
    },
    {
      "bufferView": 2,
      "byteOffset": 45096,
      "componentType": 5126,
      "count": 410,
      "max": [
        -6.5156636238098145,
        26.785396575927734,
        44.423614501953125
      ],
      "min": [
        -60.942985534667969,
        -27.641912460327148,
        43.596481323242188
      ],
      "type": "VEC3"
    },
    {
      "bufferView": 2,
      "byteOffset": 50016,
      "componentType": 5126,
      "count": 410,
      "max": [
        1,
        1,
        1
      ],
      "min": [
        -1,
        -1,
        -1
      ],
      "type": "VEC3"
    },
    {
      "bufferView": 3,
      "byteOffset": 30064,
      "componentType": 5126,
      "count": 410,
      "max": [
        0.99999910593032837,
        0.97596192359924316,
        0.86477714776992798,
        1
      ],
      "min": [
        -0.99999934434890747,
        -0.97178739309310913,
        -0.95335632562637329,
        1
      ],
      "type": "VEC4"
    },
    {
      "bufferView": 1,
      "byteOffset": 15032,
      "componentType": 5126,
      "count": 410,
      "max": [
        0.68754655122756958,
        0.93920999765396118
      ],
      "min": [
        0.46535691618919373,
        0.48334845900535583
      ],
      "type": "VEC2"
    },
    {
      "bufferView": 0,
      "byteOffset": 38976,
      "componentType": 5125,
      "count": 2256,
      "max": [
        409
      ],
      "min": [
        0
      ],
      "type": "SCALAR"
    }
  ],
  "asset": {
    "extras": {
      "author": "Kapitastic (https://sketchfab.com/m_g_s)",
      "license": "CC-BY-4.0 (http://creativecommons.org/licenses/by/4.0/)",
      "source": "https://sketchfab.com/models/e41216afc8194cc6a7c45fc3b6c75633",
      "title": "Glasses - Test"
    },
    "generator": "Sketchfab-3.26.3",
    "version": "2.0"
  },
  "bufferViews": [
    {
      "buffer": 0,
      "byteLength": 48000,
      "byteOffset": 0,
      "name": "floatBufferViews",
      "target": 34963
    },
    {
      "buffer": 0,
      "byteLength": 18312,
      "byteOffset": 48000,
      "byteStride": 8,
      "name": "floatBufferViews",
      "target": 34962
    },
    {
      "buffer": 0,
      "byteLength": 54936,
      "byteOffset": 66312,
      "byteStride": 12,
      "name": "floatBufferViews",
      "target": 34962
    },
    {
      "buffer": 0,
      "byteLength": 36624,
      "byteOffset": 121248,
      "byteStride": 16,
      "name": "floatBufferViews",
      "target": 34962
    }
  ],
  "buffers": [
    {
      "byteLength": 157872,
      "uri": "scene.bin"
    }
  ],
  "images": [
    {
      "uri": "textures/glasses_mat_baseColor.png"
    },
    {
      "uri": "textures/glasses_mat_normal.png"
    },
    {
      "uri": "textures/glasses_mat_metallicRoughness.png"
    }
  ],
  "materials": [
    {
      "alphaMode": "BLEND",
      "doubleSided": true,
      "emissiveFactor": [
        0,
        0,
        0
      ],
      "name": "glasses_mat",
      "normalTexture": {
        "index": 1,
        "scale": 1,
        "texCoord": 0
      },
      "pbrMetallicRoughness": {
        "baseColorFactor": [
          1,
          1,
          1,
          1
        ],
        "baseColorTexture": {
          "index": 0,
          "texCoord": 0
        },
        "metallicFactor": 1,
        "metallicRoughnessTexture": {
          "index": 2,
          "texCoord": 0
        },
        "roughnessFactor": 1
      }
    }
  ],
  "meshes": [
    {
      "name": "polySurface9_glasses_mat_0",
      "primitives": [
        {
          "attributes": {
            "NORMAL": 1,
            "POSITION": 0,
            "TANGENT": 2,
            "TEXCOORD_0": 3
          },
          "indices": 4,
          "material": 0,
          "mode": 4
        }
      ]
    },
    {
      "name": "pCylinder1_glasses_mat_0",
      "primitives": [
        {
          "attributes": {
            "NORMAL": 6,
            "POSITION": 5,
            "TANGENT": 7,
            "TEXCOORD_0": 8
          },
          "indices": 9,
          "material": 0,
          "mode": 4
        }
      ]
    },
    {
      "name": "pCylinder2_glasses_mat_0",
      "primitives": [
        {
          "attributes": {
            "NORMAL": 11,
            "POSITION": 10,
            "TANGENT": 12,
            "TEXCOORD_0": 13
          },
          "indices": 14,
          "material": 0,
          "mode": 4
        }
      ]
    }
  ],
  "nodes": [
    {
      "children": [
        1
      ],
      "name": "RootNode (gltf orientation matrix)",
      "rotation": [
        -0.70710678118654746,
        -0,
        -0,
        0.70710678118654757
      ]
    },
    {
      "children": [
        2
      ],
      "name": "RootNode (model correction matrix)"
    },
    {
      "children": [
        3
      ],
      "matrix": [
        1,
        0,
        0,
        0,
        0,
        0,
        1,
        0,
        0,
        -1,
        0,
        0,
        0,
        0,
        0,
        1
      ],
      "name": "093a8ce724b945beb8693c191a38036f.fbx"
    },
    {
      "children": [
        4,
        6,
        8
      ],
      "name": "RootNode"
    },
    {
      "children": [
        5
      ],
      "name": "polySurface9"
    },
    {
      "mesh": 0,
      "name": "polySurface9_glasses_mat_0"
    },
    {
      "children": [
        7
      ],
      "name": "pCylinder1"
    },
    {
      "mesh": 1,
      "name": "pCylinder1_glasses_mat_0"
    },
    {
      "children": [
        9
      ],
      "name": "pCylinder2"
    },
    {
      "mesh": 2,
      "name": "pCylinder2_glasses_mat_0"
    }
  ],
  "samplers": [
    {
      "magFilter": 9729,
      "minFilter": 9987,
      "wrapS": 10497,
      "wrapT": 10497
    }
  ],
  "scene": 0,
  "scenes": [
    {
      "name": "OSG_Scene",
      "nodes": [
        0
      ]
    }
  ],
  "textures": [
    {
      "sampler": 0,
      "source": 0
    },
    {
      "sampler": 0,
      "source": 1
    },
    {
      "sampler": 0,
      "source": 2
    }
  ]
}

